<svg xmlns="http://www.w3.org/2000/svg"
     viewBox="-100.0 -1368 2260.4 1468"
     width="512" height="512">
  <g transform="scale(1,-1)">
    <path d="M1988 1164Q1995 1099 1997.5 1072.5Q2000 1046 1997.0 996.5Q1994 947 1981 908Q1976 894 1968.0 884.5Q1960 875 1945.0 867.5Q1930 860 1920.0 856.5Q1910 853 1885.5 846.5Q1861 840 1850 837Q1817 828 1726.5 812.5Q1636 797 1594 787Q1594 794 1592.0 807.5Q1590 821 1590.0 829.5Q1590 838 1594.0 848.5Q1598 859 1608 866Q1686 921 1828.5 1036.0Q1971 1151 1988 1164ZM904 711Q938 709 946.0 673.5Q954 638 932 616Q915 598 872 598Q850 598 843 601Q860 620 859.5 648.0Q859 676 841 695Q887 711 904 711ZM752 595ZM747 663Q742 646 745.0 622.5Q748 599 752 595H745Q736 595 717.0 593.5Q698 592 690 592Q673 592 669 597Q683 621 689.0 630.5Q695 640 710.5 651.5Q726 663 747 663ZM902 778H899Q864 776 802.5 751.5Q741 727 711 724Q679 718 655.0 696.0Q631 674 620 643Q604 621 562.0 596.5Q520 572 510 563Q495 539 509.0 524.5Q523 510 549 510Q568 510 581 517Q640 524 753.0 527.5Q866 531 917 536Q962 543 989.5 582.0Q1017 621 1014.5 669.0Q1012 717 979 747Q946 778 902 778ZM247 284H243Q199 279 155.0 255.5Q111 232 111 212Q111 198 138.5 190.0Q166 182 205 182Q246 182 279 191Q294 196 300.0 207.0Q306 218 302.5 231.0Q299 244 291.5 256.0Q284 268 271.5 276.0Q259 284 247 284ZM1234 1184H1244Q1293 1183 1333.5 1162.0Q1374 1141 1402.0 1108.5Q1430 1076 1452.5 1027.0Q1475 978 1488.0 932.0Q1501 886 1512.0 826.0Q1523 766 1528.0 723.5Q1533 681 1539 629Q1542 596 1544.0 582.0Q1546 568 1559.5 483.5Q1573 399 1580.0 342.5Q1587 286 1582.5 220.0Q1578 154 1554 130Q1528 104 1483.0 90.0Q1438 76 1405.5 74.0Q1373 72 1321 72H1294Q1173 72 878.0 80.0Q583 88 512 88Q455 88 446 85Q461 123 465.5 169.0Q470 215 458.0 261.0Q446 307 416 333Q339 397 264 418Q256 420 254 420Q238 420 232.0 406.0Q226 392 233.0 375.5Q240 359 257 353Q301 336 335.0 306.0Q369 276 373 236Q378 190 353.0 144.5Q328 99 287 68Q284 68 278.0 67.5Q272 67 268 67Q215 67 164.5 91.0Q114 115 82 156Q66 180 65.0 215.5Q64 251 70 277Q73 296 86.0 312.0Q99 328 112.5 336.5Q126 345 148.5 357.5Q171 370 181 376Q257 427 327.0 504.0Q397 581 471.5 675.0Q546 769 598 821Q807 1030 941.0 1107.0Q1075 1184 1234 1184ZM2022 1268Q1998 1268 1924.0 1213.5Q1850 1159 1717.5 1048.5Q1585 938 1571 927Q1564 980 1540.0 1035.0Q1516 1090 1477.0 1141.5Q1438 1193 1377.0 1225.5Q1316 1258 1245 1258Q1145 1258 1052.0 1230.5Q959 1203 890.0 1163.5Q821 1124 747.0 1059.0Q673 994 624.5 942.5Q576 891 511 817Q500 804 494 797Q469 768 405.5 691.5Q342 615 307.0 575.5Q272 536 211.5 484.0Q151 432 91 400Q51 378 26.5 340.5Q2 303 1 258Q0 232 0.0 208.5Q0 185 7.0 160.0Q14 135 29 116Q70 61 135.0 30.5Q200 0 271 0Q283 0 309 2Q330 4 370.0 8.5Q410 13 435.0 15.5Q460 18 495.0 20.0Q530 22 559 22Q581 22 592 21Q983 4 1214 4Q1268 4 1376 6Q1428 7 1462.5 11.0Q1497 15 1541.5 31.5Q1586 48 1614 77Q1648 113 1655.0 173.5Q1662 234 1654 281Q1649 346 1640.0 420.0Q1631 494 1619.5 581.5Q1608 669 1602 720Q1623 725 1756.5 749.0Q1890 773 1955 804Q1997 823 2024.5 862.0Q2052 901 2056 947Q2059 991 2060.0 1039.5Q2061 1088 2059.5 1143.0Q2058 1198 2048.5 1233.0Q2039 1268 2022 1268Z" fill="black"/>
  </g>
</svg>