<svg xmlns="http://www.w3.org/2000/svg"
     viewBox="-100.0 -1060 1618.0 1160"
     width="512" height="512">
  <g transform="scale(1,-1)">
    <path d="M314 334Q396 334 429 234H203Q231 334 314 334ZM721 334Q804 334 836 234H609Q639 334 721 334ZM1123 334Q1205 334 1238 234H1012Q1040 334 1123 334ZM429 165Q396 67 314 67Q231 67 203 165ZM836 165Q806 67 724 67Q639 67 611 165ZM1242 165Q1209 67 1127.0 67.0Q1045 67 1014 165ZM42 960Q34 960 25 956Q-20 937 16 857L223 377Q147 330 136 234H23V165H136Q147 69 223 24Q262 4 314 0Q465 24 496 165H541Q552 69 628 24Q665 4 719 0Q869 24 899 165H945Q956 69 1032 24Q1071 4 1123 0Q1274 24 1305 165H1418V234H1305Q1274 377 1127 399L912 896Q884 960 851 960Q843 960 834 956Q789 937 823 857L1032 377Q956 330 945 234H901Q871 377 726 399L511 896Q483 960 448 960Q440 960 431 956Q387 937 422 857L630 377Q554 330 539 234H496Q465 377 320 399L103 896Q77 960 42 960Z" fill="black"/>
  </g>
</svg>